<?xml version="1.0" encoding="UTF-8" standalone="no"?>
<!DOCTYPE svg PUBLIC "-//W3C//DTD SVG 1.1//EN" "http://www.w3.org/Graphics/SVG/1.1/DTD/svg11.dtd">
<!-- Created with Vectornator (http://vectornator.io/) -->
<svg height="100%" stroke-miterlimit="10" style="fill-rule:nonzero;clip-rule:evenodd;stroke-linecap:round;stroke-linejoin:round;" version="1.1" viewBox="0 0 24 24" width="100%" xml:space="preserve" xmlns="http://www.w3.org/2000/svg" xmlns:vectornator="http://vectornator.io" xmlns:xlink="http://www.w3.org/1999/xlink">
<defs/>
<g id="SVGRepo_iconCarrier" vectornator:layerName="SVGRepo_iconCarrier">
<path d="M22.0141 3.36492C21.3829 2.72687 20.6312 2.22079 19.8025 1.87611C18.9739 1.53145 18.0849 1.35508 17.1875 1.35731C16.29 1.35508 15.4012 1.53145 14.5726 1.87611C13.7439 2.22079 12.9922 2.72687 12.361 3.36492L11.976 3.7637L11.591 3.37866C10.3145 2.10232 8.58329 1.38529 6.77818 1.38529C4.97305 1.38529 3.24186 2.10232 1.96539 3.37866C0.705623 4.66388 8.88178e-16 6.3918 8.88178e-16 8.19146C8.88178e-16 9.99114 0.705623 11.7191 1.96539 13.0042L11.2747 22.341C11.468 22.5342 11.7301 22.6427 12.0035 22.6427C12.2767 22.6427 12.5389 22.5342 12.7323 22.341L22.0416 13.0042C23.3018 11.7148 24.0051 9.98193 24 8.17895C23.9949 6.37595 23.2816 4.64713 22.0141 3.36492Z" fill="#000000" fill-rule="nonzero" opacity="1" stroke="none" vectornator:layerName="path"/>
</g>
</svg>
