<?xml version="1.0" encoding="UTF-8"?>
<svg width="2194px" height="1536px" viewBox="0 0 2194 1536" version="1.1" xmlns="http://www.w3.org/2000/svg" xmlns:xlink="http://www.w3.org/1999/xlink">
    <title>CleanShot March 5</title>
    <g id="Page-1" stroke="none" stroke-width="1" fill="none" fill-rule="evenodd">
        <g id="CleanShot-March-5" fill="#000000" fill-rule="nonzero">
            <path d="M63.3684263,1372.23547 C22.5824181,1306.82813 3.6816535,1234.77615 0.636732717,1157.56739 C-2.85082309,1069.13356 8.07009599,982.401172 31.3870234,897.800619 C67.5785884,766.487214 125.460403,647.337512 203.371073,539.891869 C276.905479,438.481491 364.453682,354.765757 468.155902,291.813267 C536.780896,250.154385 609.729991,220.523361 686.648188,204.040557 C749.689296,190.531498 813.480664,187.360199 877.976532,189.535099 C957.810961,192.227211 1032.92202,212.097609 1104.68776,249.121309 C1112.809,253.310987 1118.53557,251.547229 1125.32337,245.716565 C1186.76539,192.938816 1251.19039,145.070046 1320.20098,104.719459 C1384.09502,67.3606785 1450.63309,36.9631427 1520.19312,14.9953392 C1539.54297,8.88442961 1558.89805,2.19670964 1579.50176,0.233984849 C1616.06695,-3.24927508 1641.93415,32.7761559 1641.4764,67.0740277 C1640.30987,154.455519 1640.90499,241.865314 1640.83247,329.263824 C1640.81312,352.487925 1641.00208,351.364372 1662.01125,354.199501 C1790.9181,371.595014 1903.36875,425.604917 1992.07642,532.347078 C2046.41877,597.737278 2082.36479,673.814294 2099.91604,759.510392 C2112.07917,818.900333 2117.4347,879.570255 2108.13908,940.32315 C2105.50777,957.521412 2111.60223,967.619396 2122.48552,977.571814 C2140.35281,993.910792 2158.08709,1010.54871 2171.0383,1032.15059 C2199.10869,1078.97052 2198.92078,1128.66364 2183.98741,1180.11106 C2165.79468,1242.78764 2135.02831,1297.4031 2092.76888,1343.50168 C2044.56596,1396.0838 1987.04459,1432.5591 1921.59443,1454.38886 C1871.65775,1471.04431 1820.63194,1478.8526 1768.77255,1478.07696 C1732.26803,1477.53099 1695.74328,1473.16862 1659.8302,1465.37062 C1631.11484,1459.13544 1613.35668,1430.80052 1615.24522,1398.61747 C1617.39211,1362.03108 1644.66117,1343.50539 1669.47602,1340.73423 C1682.91897,1339.23305 1696.48691,1345.13709 1710.05938,1347.30713 C1752.28882,1354.05912 1794.14348,1354.15086 1836.33282,1347.07764 C1896.43164,1337.00185 1950.24337,1312.09237 1996.66618,1268.97682 C2038.08382,1230.51 2066.23248,1182.89584 2078.76271,1124.67719 C2081.77856,1110.66486 2076.20322,1100.43951 2067.44573,1091.53853 C2052.46931,1076.31663 2037.77929,1060.69814 2022.12827,1046.34125 C1991.16282,1017.93555 1986.05064,981.649153 1992.20576,940.626854 C2016.02823,781.857725 1951.73134,620.985865 1817.61505,537.317097 C1756.62164,499.266108 1690.79774,479.733284 1620.85195,475.987038 C1608.0428,475.300989 1595.24134,474.440459 1582.42976,473.824382 C1551.23718,472.32434 1526.26527,444.187524 1526.18125,409.702541 C1525.98497,329.067195 1526.05748,248.431018 1525.91803,167.795413 C1525.9067,161.188484 1527.28258,154.262963 1522.56487,146.162542 C1410.18744,186.006725 1309.59764,249.468548 1215.2069,329.380426 C1230.57483,347.559636 1244.83498,363.390705 1258.03145,380.218438 C1314.76788,452.567691 1351.18995,536.13362 1373.48209,627.911813 C1385.58124,677.724775 1394.79004,727.88731 1397.11735,779.318249 C1398.27516,804.909636 1410.70027,819.62549 1430.37034,830.832261 C1480.95792,859.65389 1530.96572,889.688623 1581.43371,918.764515 C1629.20206,946.28511 1659.87657,988.78697 1673.86723,1045.24266 C1681.52444,1076.14096 1680.8704,1107.8977 1674.71981,1139.18222 C1660.68854,1210.55019 1636.63179,1277.37165 1596.76574,1336.49847 C1541.99195,1417.7357 1469.85778,1472.03954 1382.43988,1504.38273 C1297.75091,1535.71631 1210.97937,1541.41486 1123.43265,1531.66088 C1023.39212,1520.51527 934.652639,1477.99817 858.777815,1404.84026 C831.853642,1378.88029 824.030308,1349.65779 837.180499,1320.63696 C851.52807,1288.97358 894.34574,1268.8766 925.034892,1300.84864 C971.336628,1349.08592 1025.07262,1381.87371 1086.99218,1397.41075 C1139.88204,1410.682 1193.39465,1416.08342 1248.037,1408.64409 C1311.13337,1400.05368 1371.15287,1383.3989 1424.571,1344.16672 C1489.66225,1296.36137 1531.38408,1229.98404 1554.04037,1148.6365 C1557.90409,1134.76459 1561.01321,1120.62681 1564.10855,1106.51684 C1570.00394,1079.64338 1556.76041,1047.81948 1532.10279,1032.75648 C1493.94085,1009.44402 1455.07381,987.51242 1416.88294,964.255117 C1390.76158,948.347881 1362.57615,936.073 1339.25379,915.123585 C1306.09422,885.33759 1289.17348,847.040914 1285.02962,799.679881 C1274.43971,678.648559 1246.4237,563.862086 1174.11139,467.247436 C1120.08062,395.058183 1050.74049,350.450733 967.781264,328.765538 C898.728147,310.715321 828.959201,309.391758 759.5931,318.655505 C676.032302,329.814884 596.938544,359.12184 523.168158,404.590912 C409.338837,474.750928 319.109074,571.853046 247.523923,690.579197 C199.030892,771.00639 162.433323,857.404973 138.48748,950.093992 C122.821552,1010.73343 112.301976,1072.69743 113.652932,1135.66075 C114.992075,1198.07488 127.32337,1258.28971 163.204455,1309.59814 C199.402187,1361.35956 248.051841,1389.38239 306.268254,1400.36015 C354.471263,1409.44956 401.994481,1407.96038 448.85861,1393.13735 C507.286861,1374.65654 548.591374,1332.13362 579.699408,1276.91267 C609.878335,1223.34055 627.944167,1164.50629 641.391916,1103.55001 C653.927988,1046.72622 667.964229,990.34169 684.034747,934.474455 C708.703173,848.718052 738.196944,765.199519 775.210045,685.039211 C818.321352,591.671954 871.771379,505.908071 939.24231,431.26908 C970.342849,396.864311 1018.13107,405.641875 1034.51213,449.243042 C1043.09601,472.09023 1041.15011,496.009242 1024.53268,514.631144 C961.787473,584.945157 912.84571,665.594029 872.952551,753.164798 C839.035317,827.618024 813.21457,905.505644 790.137393,984.635898 C767.483458,1062.31451 754.20898,1142.83058 729.856763,1219.95989 C701.500755,1309.77086 661.472936,1391.5047 592.102217,1452.07536 C537.639756,1499.62902 474.400885,1522.58099 405.479335,1528.31899 C362.770002,1531.87485 320.313254,1531.28725 277.931639,1522.59509 C216.183219,1509.93096 161.661142,1481.6009 114.508782,1436.37027 C95.1256814,1417.77723 78.0808658,1396.83211 63.3684263,1372.23547 Z" id="Path"></path>
            <path d="M1057.11814,915.739891 C1057.83902,871.146788 1083.38049,833.192359 1117.71378,824.239622 C1153.75621,814.84126 1189.99692,833.842571 1207.43611,871.281579 C1228.7339,917.004344 1212.02757,970.69563 1169.38765,993.5641 C1131.08412,1014.10697 1081.28174,992.603149 1064.19882,947.924616 C1060.46211,938.151394 1056.90588,928.163618 1057.11814,915.739891 Z" id="Path"></path>
            <path d="M1766.48034,915.36782 C1778.3835,871.40117 1809.95633,850.309289 1856.47967,854.240979 C1887.33945,856.848742 1917.80913,891.64443 1922.26674,929.368314 C1926.54757,965.59647 1901.42136,1006.94151 1866.14232,1017.35238 C1837.79487,1025.7178 1809.89512,1021.61046 1788.14588,998.449097 C1767.11292,976.050596 1757.64091,948.74075 1766.48034,915.36782 Z" id="Path"></path>
        </g>
    </g>
</svg>