<?xml version="1.0" encoding="UTF-8" standalone="no"?>
<!DOCTYPE svg PUBLIC "-//W3C//DTD SVG 1.1//EN" "http://www.w3.org/Graphics/SVG/1.1/DTD/svg11.dtd">
<!-- Created with Vectornator (http://vectornator.io/) -->
<svg height="100%" stroke-miterlimit="10" style="fill-rule:nonzero;clip-rule:evenodd;stroke-linecap:round;stroke-linejoin:round;" version="1.1" viewBox="0 0 24 24" width="100%" xml:space="preserve" xmlns="http://www.w3.org/2000/svg" xmlns:vectornator="http://vectornator.io" xmlns:xlink="http://www.w3.org/1999/xlink">
<defs/>
<g id="Untitled" vectornator:layerName="Untitled">
<path d="M12 22.647C11.7267 22.6467 11.4645 22.538 11.2714 22.3445L1.96482 13.0105C0.705418 11.7255 0 9.99811 0 8.19901C0 6.39988 0.705418 4.67246 1.96482 3.38762C3.24092 2.11164 4.97161 1.39483 6.77621 1.39483C8.58079 1.39483 10.3115 2.11164 11.5876 3.38762L12 3.74504L12.3849 3.36013C13.0159 2.72228 13.7674 2.21632 14.5958 1.87176C15.4242 1.52718 16.3129 1.35088 17.21 1.35309C18.1063 1.34908 18.9944 1.52322 19.8228 1.86541C20.651 2.20761 21.4031 2.711 22.0352 3.34638C23.2945 4.63121 24 6.35864 24 8.15777C24 9.95687 23.2945 11.6843 22.0352 12.9692L12.7286 22.3033C12.6365 22.4065 12.5244 22.4901 12.3992 22.5492C12.2741 22.6082 12.1383 22.6415 12 22.647ZM6.78995 3.40137C6.16561 3.39682 5.54655 3.51596 4.96849 3.7519C4.39043 3.98785 3.86482 4.33592 3.42198 4.77605C2.52964 5.67255 2.02867 6.88598 2.02867 8.1509C2.02867 9.4158 2.52964 10.6292 3.42198 11.5258L12 20.1588L20.5643 11.5533C21.0077 11.1102 21.3596 10.5841 21.5997 10.005C21.8397 9.42597 21.9633 8.80526 21.9633 8.17839C21.9633 7.55152 21.8397 6.93081 21.5997 6.35173C21.3596 5.77265 21.0077 5.24656 20.5643 4.80354C20.1249 4.36259 19.6018 4.01384 19.0258 3.77777C18.4499 3.54171 17.8325 3.42309 17.21 3.42886C16.5857 3.42431 15.9666 3.54346 15.3886 3.77939C14.8105 4.01534 14.2848 4.36341 13.8421 4.80354L12.7286 5.91704C12.5319 6.10365 12.2711 6.20769 12 6.20769C11.7289 6.20769 11.4681 6.10365 11.2714 5.91704L10.1579 4.80354C9.71733 4.35845 9.19276 4.00531 8.6146 3.7646C8.03643 3.52389 7.41622 3.40042 6.78995 3.40137Z" fill="#000000" fill-rule="nonzero" opacity="1" stroke="none" vectornator:layerName="path"/>
</g>
</svg>
