<?xml version="1.0" encoding="UTF-8" standalone="no"?>
<!DOCTYPE svg PUBLIC "-//W3C//DTD SVG 1.1//EN" "http://www.w3.org/Graphics/SVG/1.1/DTD/svg11.dtd">
<!-- Created with Vectornator (http://vectornator.io/) -->
<svg height="100%" stroke-miterlimit="10" style="fill-rule:nonzero;clip-rule:evenodd;stroke-linecap:round;stroke-linejoin:round;" version="1.1" viewBox="0 0 24 24" width="100%" xml:space="preserve" xmlns="http://www.w3.org/2000/svg" xmlns:vectornator="http://vectornator.io" xmlns:xlink="http://www.w3.org/1999/xlink">
<defs/>
<g id="Untitled" vectornator:layerName="Untitled">
<path d="M19.8857 24C19.6764 23.9959 19.4725 23.9342 19.296 23.8217L12 18.7337L4.704 23.8217C4.54284 23.9198 4.35781 23.9717 4.16914 23.9717C3.98047 23.9717 3.79544 23.9198 3.63428 23.8217C3.47645 23.7404 3.34273 23.619 3.24647 23.4698C3.15021 23.3206 3.09478 23.1488 3.08571 22.9714L3.08571 3.77143C3.08571 2.77118 3.48306 1.8119 4.19034 1.10463C4.89762 0.397344 5.85689 0 6.85714 0L17.1429 0C18.143 0 19.1024 0.397344 19.8096 1.10463C20.517 1.8119 20.9143 2.77118 20.9143 3.77143L20.9143 22.9714C20.915 23.1582 20.8641 23.3414 20.7674 23.5012C20.6706 23.6608 20.5315 23.7907 20.3657 23.8766C20.2186 23.9573 20.0536 23.9997 19.8857 24ZM12 16.4571C12.2101 16.4549 12.416 16.5172 12.5897 16.6354L18.8571 20.9966L18.8571 3.77143C18.8571 3.31677 18.6765 2.88074 18.3551 2.55925C18.0336 2.23776 17.5975 2.05714 17.1429 2.05714L6.85714 2.05714C6.40249 2.05714 5.96645 2.23776 5.64496 2.55925C5.32347 2.88074 5.14286 3.31677 5.14286 3.77143L5.14286 20.9966L11.4103 16.6354C11.584 16.5172 11.7899 16.4549 12 16.4571Z" fill="#000000" fill-rule="nonzero" opacity="1" stroke="none" vectornator:layerName="path"/>
</g>
</svg>
