<?xml version="1.0" encoding="UTF-8" standalone="no"?>
<!DOCTYPE svg PUBLIC "-//W3C//DTD SVG 1.1//EN" "http://www.w3.org/Graphics/SVG/1.1/DTD/svg11.dtd">
<!-- Created with Vectornator (http://vectornator.io/) -->
<svg height="100%" stroke-miterlimit="10" style="fill-rule:nonzero;clip-rule:evenodd;stroke-linecap:round;stroke-linejoin:round;" version="1.1" viewBox="0 0 24 24" width="100%" xml:space="preserve" xmlns="http://www.w3.org/2000/svg" xmlns:vectornator="http://vectornator.io" xmlns:xlink="http://www.w3.org/1999/xlink">
<defs/>
<g id="Untitled" vectornator:layerName="Untitled">
<path d="M22.7662 12.1858C22.7662 18.1318 17.946 22.952 12 22.952C10.568 22.952 9.20115 22.6724 7.95131 22.1647C7.71209 22.0676 7.59249 22.019 7.49581 21.9974C7.40124 21.9762 7.33125 21.9684 7.23433 21.9684C7.13524 21.9684 7.02733 21.9863 6.81148 22.0224L2.55538 22.7317C2.10968 22.806 1.88684 22.8431 1.72569 22.774C1.58465 22.7135 1.47227 22.6011 1.41177 22.4601C1.34265 22.2989 1.3798 22.0761 1.45408 21.6303L2.16343 17.3744C2.1994 17.1584 2.21739 17.0505 2.21738 16.9515C2.21737 16.8545 2.20962 16.7845 2.18842 16.69C2.16675 16.5933 2.11817 16.4737 2.02102 16.2345C1.51343 14.9846 1.23382 13.6178 1.23382 12.1858C1.23382 6.23978 6.05401 1.4196 12 1.4196C13.8614 1.4196 15.6124 1.89195 17.1397 2.72332C20.4915 4.54775 22.7662 8.10112 22.7662 12.1858Z" fill="none" opacity="1" stroke="#000000" stroke-linecap="round" stroke-linejoin="round" stroke-width="2" vectornator:layerName="path"/>
</g>
</svg>
