<?xml version="1.0" encoding="UTF-8" standalone="no"?>
<!DOCTYPE svg PUBLIC "-//W3C//DTD SVG 1.1//EN" "http://www.w3.org/Graphics/SVG/1.1/DTD/svg11.dtd">
<!-- Created with Vectornator (http://vectornator.io/) -->
<svg height="100%" stroke-miterlimit="10" style="fill-rule:nonzero;clip-rule:evenodd;stroke-linecap:round;stroke-linejoin:round;" version="1.1" viewBox="0 0 24 24" width="100%" xml:space="preserve" xmlns="http://www.w3.org/2000/svg" xmlns:vectornator="http://vectornator.io" xmlns:xlink="http://www.w3.org/1999/xlink">
<defs/>
<g id="Untitled" vectornator:layerName="Untitled">
<path d="M22.8387 13.1613L1.16129 13.1613C0.853301 13.1613 0.557915 13.039 0.340134 12.8211C0.122354 12.6034 0 12.308 0 12C0 11.692 0.122354 11.3966 0.340134 11.1789C0.557915 10.961 0.853301 10.8387 1.16129 10.8387L22.8387 10.8387C23.1467 10.8387 23.4421 10.961 23.6598 11.1789C23.8777 11.3966 24 11.692 24 12C24 12.308 23.8777 12.6034 23.6598 12.8211C23.4421 13.039 23.1467 13.1613 22.8387 13.1613Z" fill="#000000" fill-rule="nonzero" opacity="1" stroke="none" vectornator:layerName="path"/>
<path d="M22.8387 6.19355L1.16129 6.19355C0.853301 6.19355 0.557915 6.07119 0.340134 5.85341C0.122354 5.63563 0 5.34025 0 5.03226C0 4.72427 0.122354 4.42888 0.340134 4.2111C0.557915 3.99332 0.853301 3.87097 1.16129 3.87097L22.8387 3.87097C23.1467 3.87097 23.4421 3.99332 23.6598 4.2111C23.8777 4.42888 24 4.72427 24 5.03226C24 5.34025 23.8777 5.63563 23.6598 5.85341C23.4421 6.07119 23.1467 6.19355 22.8387 6.19355Z" fill="#000000" fill-rule="nonzero" opacity="1" stroke="none" vectornator:layerName="path"/>
<path d="M22.8387 20.129L1.16129 20.129C0.853301 20.129 0.557915 20.0067 0.340134 19.7889C0.122354 19.5711 0 19.2757 0 18.9677C0 18.6598 0.122354 18.3643 0.340134 18.1466C0.557915 17.9288 0.853301 17.8065 1.16129 17.8065L22.8387 17.8065C23.1467 17.8065 23.4421 17.9288 23.6598 18.1466C23.8777 18.3643 24 18.6598 24 18.9677C24 19.2757 23.8777 19.5711 23.6598 19.7889C23.4421 20.0067 23.1467 20.129 22.8387 20.129Z" fill="#000000" fill-rule="nonzero" opacity="1" stroke="none" vectornator:layerName="path"/>
</g>
</svg>
